<svg width="32" height="32" viewBox="0 0 32 32" fill="none" xmlns="http://www.w3.org/2000/svg">
<g id="fluent-emoji-flat:admission-tickets">
<g id="Group">
<path id="Vector" d="M29.31 19.359C28.68 19.359 28.17 18.855 28.17 18.233C28.17 17.61 28.68 17.106 29.31 17.106H29.53C29.79 17.106 30.01 16.899 30.01 16.632V15.378C30.0097 15.3153 29.9971 15.2532 29.9728 15.1954C29.9486 15.1375 29.9131 15.085 29.8685 15.0409C29.8239 14.9968 29.7711 14.9619 29.713 14.9382C29.6549 14.9146 29.5927 14.9026 29.53 14.903H29.35C28.72 14.903 28.18 14.419 28.17 13.797C28.1679 13.6464 28.1958 13.4969 28.2523 13.3573C28.3088 13.2177 28.3926 13.0908 28.4988 12.984C28.605 12.8772 28.7314 12.7928 28.8708 12.7356C29.0101 12.6784 29.1594 12.6496 29.31 12.651H29.53C29.79 12.651 30.01 12.444 30.01 12.177V10.636C30.009 10.5205 29.9657 10.4094 29.8883 10.3237C29.8109 10.238 29.7048 10.1837 29.59 10.171C28.8966 10.0816 28.2506 9.77082 27.748 9.28493C27.2453 8.79903 26.9129 8.16392 26.8 7.47398C26.7778 7.34151 26.7093 7.22121 26.6068 7.13443C26.5043 7.04766 26.3743 7.00002 26.24 6.99998H5.75C5.61524 6.99838 5.48443 7.04543 5.38157 7.1325C5.2787 7.21957 5.21069 7.34081 5.19 7.47398C4.97 8.86698 3.84 9.96398 2.42 10.161C2.30523 10.1737 2.19911 10.228 2.12171 10.3137C2.04431 10.3994 2.00101 10.5105 2 10.626V12.176C2 12.434 2.21 12.651 2.48 12.651H2.66C3.29 12.651 3.83 13.135 3.84 13.757C3.84214 13.9076 3.81416 14.057 3.7577 14.1967C3.70124 14.3363 3.61745 14.4632 3.51124 14.57C3.40503 14.6767 3.27856 14.7612 3.13924 14.8184C2.99993 14.8756 2.85059 14.9043 2.7 14.903H2.48C2.22 14.903 2 15.111 2 15.378V16.632C2 16.889 2.21 17.106 2.48 17.106H2.7C3.33 17.106 3.84 17.61 3.84 18.233C3.84 18.855 3.33 19.359 2.7 19.359H2.48C2.22 19.359 2 19.566 2 19.833V21.394C2 21.631 2.18 21.829 2.42 21.858C3.10825 21.9473 3.74939 22.256 4.24835 22.7384C4.74731 23.2208 5.07752 23.8511 5.19 24.536C5.21284 24.6673 5.28178 24.7862 5.38443 24.8713C5.48708 24.9563 5.61671 25.0019 5.75 25H26.26C26.3933 25.0019 26.5229 24.9563 26.6256 24.8713C26.7282 24.7862 26.7972 24.6673 26.82 24.536C26.9318 23.8525 27.2605 23.2232 27.7575 22.7409C28.2545 22.2587 28.8935 21.9491 29.58 21.858C29.82 21.828 30 21.631 30 21.394V19.834C29.9997 19.7713 29.9871 19.7092 29.9628 19.6514C29.9386 19.5935 29.9031 19.541 29.8585 19.4969C29.8139 19.4528 29.7611 19.4179 29.703 19.3942C29.6449 19.3706 29.5827 19.3586 29.52 19.359H29.31Z" fill="#F8312F"/>
<path id="Vector_2" d="M23 12C22.452 12 22 12.448 22 12.992V19.008C22.0115 19.2655 22.1219 19.5086 22.3082 19.6867C22.4945 19.8648 22.7423 19.9643 23 19.9643C23.2577 19.9643 23.5055 19.8648 23.6918 19.6867C23.8781 19.5086 23.9885 19.2655 24 19.008V12.992C23.9997 12.8611 23.9736 12.7316 23.9232 12.6108C23.8727 12.4901 23.7989 12.3805 23.706 12.2883C23.6131 12.1961 23.5029 12.1232 23.3818 12.0737C23.2606 12.0243 23.1309 11.9992 23 12ZM18.005 16C18.005 16.5304 17.7943 17.0391 17.4192 17.4142C17.0441 17.7893 16.5354 18 16.005 18C15.4746 18 14.9659 17.7893 14.5908 17.4142C14.2157 17.0391 14.005 16.5304 14.005 16C14.005 15.4696 14.2157 14.9608 14.5908 14.5858C14.9659 14.2107 15.4746 14 16.005 14C16.5354 14 17.0441 14.2107 17.4192 14.5858C17.7943 14.9608 18.005 15.4696 18.005 16ZM8 12.992C8 12.448 8.456 12 9.01 12C9.14149 11.9987 9.27195 12.0233 9.39391 12.0725C9.51587 12.1216 9.62694 12.1944 9.72075 12.2865C9.81457 12.3786 9.88929 12.4884 9.94064 12.6094C9.99199 12.7305 10.019 12.8605 10.02 12.992V19.008C10.02 19.552 9.564 20 9.01 20C8.456 20 8 19.552 8 19.008V12.992Z" fill="#CA0B4A"/>
<path id="Vector_3" d="M8.55001 10.012C7.29501 10.012 6.26501 10.984 6.26501 12.2V19.831C6.26501 21.059 7.30701 22.019 8.55001 22.019H23.46C24.715 22.019 25.745 21.048 25.745 19.831V12.2C25.745 10.984 24.715 10.012 23.46 10.012H8.55001ZM23.46 21.449H20.635V10.582H23.46C24.425 10.582 25.175 11.323 25.175 12.2V19.831C25.175 20.708 24.425 21.449 23.46 21.449ZM20.065 21.449H11.945V10.582H20.065V21.449ZM11.375 10.582V21.449H8.55001C7.59301 21.449 6.83501 20.716 6.83501 19.831V12.2C6.83501 11.323 7.58502 10.582 8.55001 10.582H11.375Z" fill="#CA0B4A"/>
</g>
</g>
</svg>
