<svg width="32" height="32" viewBox="0 0 32 32" fill="none" xmlns="http://www.w3.org/2000/svg">
<g id="fluent-emoji-flat:alien-monster">
<g id="Group">
<path id="Vector" d="M9 3H10C10.55 3 11 3.45 11 4V5.43C11 5.74 10.74 6 10.43 6H9C8.45 6 8 5.55 8 5V4C8 3.45 8.45 3 9 3ZM11.99 29.03H13C13.55 29.03 14 28.58 14 28.03V27.03C14 26.48 13.55 26.03 13 26.03H10.57C10.26 26.03 10 26.29 10 26.6V27.04C10 28.14 10.89 29.03 11.99 29.03ZM18 27.03V28.03C18 28.58 18.45 29.03 19 29.03H20.03C21.12 29.03 22 28.15 22 27.06V26.6C22 26.4488 21.9399 26.3038 21.8331 26.1969C21.7262 26.0901 21.5812 26.03 21.43 26.03H19C18.45 26.03 18 26.48 18 27.03ZM24 5V4C24 3.45 23.55 3 23 3H22C21.45 3 21 3.45 21 4V5.43C21 5.74 21.26 6 21.57 6H23C23.55 6 24 5.55 24 5ZM28 11.03C28 10.48 28.45 10.03 29 10.03C29.55 10.03 30 10.48 30 11.03V15.03C30 15.58 29.55 16.03 29 16.03H28.57C28.4188 16.03 28.2738 16.0901 28.1669 16.1969C28.0601 16.3038 28 16.4488 28 16.6V17.06C28 18.15 27.12 19.03 26.03 19.03H25.57C25.4188 19.03 25.2738 19.0901 25.1669 19.1969C25.0601 19.3038 25 19.4488 25 19.6V24.04C25 25.14 24.11 26.03 23.01 26.03H22.57C22.4188 26.03 22.2738 25.9699 22.1669 25.8631C22.0601 25.7562 22 25.6112 22 25.46V22.6C22 22.4488 21.9399 22.3038 21.8331 22.1969C21.7262 22.0901 21.5812 22.03 21.43 22.03H10.57C10.4188 22.03 10.2738 22.0901 10.1669 22.1969C10.0601 22.3038 10 22.4488 10 22.6V25.46C10 25.77 9.75 26.03 9.43 26.03H9C7.9 26.03 7 25.13 7 24.03V19.6C7 19.29 6.74 19.03 6.43 19.03H6C4.9 19.03 4 18.13 4 17.03V16.6C4 16.29 3.74 16.03 3.43 16.03H3C2.45 16.03 2 15.58 2 15.03V11.03C2 10.48 2.45 10.03 3 10.03H3.03C3.58 10.03 4.03 10.48 4.03 11.03V12.46C4.03 12.78 4.28 13.03 4.6 13.03L6.4 13.02C6.7 13.01 6.96 12.8 7 12.51C7.24 10.7 8.71 9.29 10.53 9.06C10.8 9.03 11 8.78 11 8.5V6.57C11 6.26 11.26 6 11.58 6H11.88C13.05 6 14 6.95 14 8.12V8.46C14 8.78 14.26 9.03 14.57 9.03H17.43C17.74 9.03 18 8.78 18 8.46V8.07C18 6.93 18.93 6 20.07 6H20.43C20.74 6 21 6.26 21 6.57V8.5C21 8.78 21.2 9.03 21.47 9.06C23.29 9.28 24.74 10.7 24.97 12.52C25.01 12.82 25.27 13.03 25.57 13.03H27.43C27.74 13.03 28 12.78 28 12.46V11.03Z" fill="#635994"/>
<path id="Vector_2" d="M10 15.982C10 16.547 10.445 17 11 17C11.1329 17 11.2644 16.9736 11.3869 16.9222C11.5094 16.8708 11.6205 16.7955 11.7135 16.7008C11.8066 16.606 11.8799 16.4936 11.9291 16.3702C11.9783 16.2468 12.0024 16.1148 12 15.982V14.018C12 13.453 11.554 13 11 13C10.445 13 10 13.453 10 14.018V15.982ZM20 15.982C20 16.547 20.445 17 21 17C21.555 17 22 16.537 22 15.982V14.018C22 13.453 21.555 13 21 13C20.445 13 20 13.453 20 14.018V15.982Z" fill="#402A32"/>
</g>
</g>
</svg>
