<svg width="32" height="32" viewBox="0 0 32 32" fill="none" xmlns="http://www.w3.org/2000/svg">
<g id="fluent-emoji-flat:automobile">
<g id="Group">
<path id="Vector" d="M24.64 10H14.98C13.92 10.04 12.94 10.61 12.35 11.49L12 12L10.566 14.985L7.98 18H4.88C3.59 18 2.5 18.84 2.13 20L2.396 21.5L2 23V24L16 25L30 24V19.51C30 19 29.95 18.49 29.86 18L28.545 15.211C28.545 15.211 27.78 12.1 27.76 12.04C27.4941 11.4338 27.0574 10.9182 26.5034 10.5559C25.9494 10.1937 25.3019 10.0005 24.64 10Z" fill="#F8312F"/>
<path id="Vector_2" d="M28.61 26H3.39C2.62 26 2 25.38 2 24.61V24H30V24.61C30 25.38 29.38 26 28.61 26Z" fill="#9B9B9B"/>
<path id="Vector_3" d="M12 12L7.98999 18H15.03C15.56 18 15.99 17.57 15.99 17.04V12.96C15.99 12.8339 15.9652 12.7091 15.9169 12.5926C15.8687 12.4762 15.798 12.3703 15.7088 12.2812C15.6197 12.192 15.5138 12.1213 15.3974 12.0731C15.2809 12.0248 15.1561 12 15.03 12H12ZM23.01 18H18.97C18.8439 18 18.7191 17.9752 18.6026 17.9269C18.4861 17.8787 18.3803 17.808 18.2912 17.7188C18.202 17.6297 18.1313 17.5238 18.0831 17.4074C18.0348 17.2909 18.01 17.1661 18.01 17.04V12.96C18.01 12.43 18.44 12 18.97 12H23.01C23.54 12 23.97 12.43 23.97 12.96V17.04C23.97 17.57 23.54 18 23.01 18ZM27.83 12.21L29.47 16.58C29.64 17.04 29.77 17.52 29.85 18H26.94C26.6854 18 26.4412 17.8989 26.2612 17.7188C26.0811 17.5388 25.98 17.2946 25.98 17.04V13.04C25.98 12.47 26.45 12 27.02 12H27.74C27.74 12 27.81 12.15 27.83 12.21Z" fill="#26C9FC"/>
<path id="Vector_4" d="M3.99 22V21C3.99 20.45 3.54 20 2.99 20H2.14C2.04 20.29 2 20.6 2 21.27V23H2.99C3.54 23 3.99 22.55 3.99 22Z" fill="#E6E6E6"/>
<path id="Vector_5" d="M12.02 25.5C12.02 26.4283 11.6513 27.3185 10.9949 27.9749C10.3385 28.6313 9.44828 29 8.52002 29C7.59176 29 6.70152 28.6313 6.04515 27.9749C5.38877 27.3185 5.02002 26.4283 5.02002 25.5C5.02002 24.5717 5.38877 23.6815 6.04515 23.0251C6.70152 22.3687 7.59176 22 8.52002 22C9.44828 22 10.3385 22.3687 10.9949 23.0251C11.6513 23.6815 12.02 24.5717 12.02 25.5ZM27 25.5C27 26.4283 26.6313 27.3185 25.9749 27.9749C25.3185 28.6313 24.4283 29 23.5 29C22.5718 29 21.6815 28.6313 21.0251 27.9749C20.3688 27.3185 20 26.4283 20 25.5C20 24.5717 20.3688 23.6815 21.0251 23.0251C21.6815 22.3687 22.5718 22 23.5 22C24.4283 22 25.3185 22.3687 25.9749 23.0251C26.6313 23.6815 27 24.5717 27 25.5Z" fill="#321B41"/>
<path id="Vector_6" d="M10 25.5C10 25.8978 9.84196 26.2794 9.56066 26.5607C9.27936 26.842 8.89782 27 8.5 27C8.10218 27 7.72064 26.842 7.43934 26.5607C7.15804 26.2794 7 25.8978 7 25.5C7 25.1022 7.15804 24.7206 7.43934 24.4393C7.72064 24.158 8.10218 24 8.5 24C8.89782 24 9.27936 24.158 9.56066 24.4393C9.84196 24.7206 10 25.1022 10 25.5ZM25 25.5C25 25.697 24.9612 25.892 24.8858 26.074C24.8104 26.256 24.6999 26.4214 24.5607 26.5607C24.4214 26.6999 24.256 26.8104 24.074 26.8858C23.892 26.9612 23.697 27 23.5 27C23.303 27 23.108 26.9612 22.926 26.8858C22.744 26.8104 22.5786 26.6999 22.4393 26.5607C22.3001 26.4214 22.1896 26.256 22.1142 26.074C22.0388 25.892 22 25.697 22 25.5C22 25.1022 22.158 24.7206 22.4393 24.4393C22.7206 24.158 23.1022 24 23.5 24C23.8978 24 24.2794 24.158 24.5607 24.4393C24.842 24.7206 25 25.1022 25 25.5Z" fill="#E6E6E6"/>
<path id="Vector_7" d="M29.9901 20H29.4901C28.6401 20 27.9501 20.71 27.9901 21.57C28.0301 22.38 28.7301 23 29.5401 23H29.9901V20Z" fill="#CA0B4A"/>
<path id="Vector_8" d="M11.13 19H11.52C11.79 19 12 18.78 12 18.52V16.48C12 16.417 11.9876 16.3545 11.9635 16.2963C11.9393 16.2381 11.904 16.1852 11.8594 16.1406C11.8148 16.096 11.7619 16.0607 11.7037 16.0365C11.6455 16.0124 11.583 16 11.52 16H11.13C10.51 16 10 16.51 10 17.13V17.87C10 18.49 10.51 19 11.13 19Z" fill="#321B41"/>
</g>
</g>
</svg>
