<svg width="32" height="32" viewBox="0 0 32 32" fill="none" xmlns="http://www.w3.org/2000/svg">
<path d="M20.9425 5.724C21.1925 5.97404 21.3329 6.31311 21.3329 6.66667C21.3329 7.02022 21.1925 7.3593 20.9425 7.60933L12.5519 16L20.9425 24.3907C21.1854 24.6421 21.3198 24.9789 21.3168 25.3285C21.3137 25.6781 21.1735 26.0125 20.9263 26.2598C20.6791 26.507 20.3447 26.6472 19.9951 26.6502C19.6455 26.6533 19.3087 26.5189 19.0572 26.276L9.72388 16.9427C9.47392 16.6926 9.3335 16.3536 9.3335 16C9.3335 15.6464 9.47392 15.3074 9.72388 15.0573L19.0572 5.724C19.3072 5.47404 19.6463 5.33362 19.9999 5.33362C20.3534 5.33362 20.6925 5.47404 20.9425 5.724Z" fill="white"/>
</svg>
