<svg width="22" height="24" viewBox="0 0 22 24" fill="none" xmlns="http://www.w3.org/2000/svg">
<g id="bell" clip-path="url(#clip0_1_128)">
<g id="Group">
<path id="Vector" d="M0 18.3803C0 18.8061 0.154814 19.1467 0.464442 19.4021C0.774071 19.6575 1.20368 19.7852 1.75327 19.7852H6.65313C6.6841 20.5361 6.8873 21.2289 7.26272 21.8637C7.63814 22.4984 8.14322 23.0112 8.77796 23.4021C9.41269 23.793 10.1364 23.9885 10.9492 23.9885C11.7697 23.9885 12.4973 23.7949 13.1321 23.4079C13.7668 23.0208 14.2719 22.508 14.6473 21.8695C15.0228 21.2308 15.226 20.5361 15.2569 19.7852H20.1568C20.7064 19.7852 21.136 19.6575 21.4456 19.4021C21.7552 19.1467 21.91 18.8061 21.91 18.3803C21.91 17.9933 21.7978 17.6178 21.5733 17.254C21.3488 16.8902 21.0682 16.5341 20.7315 16.1858C20.3948 15.8375 20.06 15.4891 19.7272 15.1408C19.4717 14.8776 19.2724 14.5331 19.1293 14.1074C18.986 13.6817 18.8796 13.2289 18.8099 12.749C18.7402 12.269 18.6899 11.8046 18.659 11.3556C18.6358 9.83069 18.4752 8.48962 18.1771 7.33238C17.8791 6.17515 17.4166 5.20949 16.7896 4.43543C16.1626 3.66136 15.3343 3.08855 14.3048 2.71699C14.1113 1.9584 13.7184 1.31592 13.1263 0.789551C12.5341 0.263184 11.8085 0 10.9492 0C10.0978 0 9.37593 0.263184 8.78377 0.789551C8.1916 1.31592 7.79876 1.9584 7.60524 2.71699C6.57573 3.08855 5.74554 3.66136 5.11467 4.43543C4.48381 5.20949 4.0213 6.17515 3.72715 7.33238C3.433 8.48962 3.27432 9.83069 3.2511 11.3556C3.22013 11.8046 3.16982 12.269 3.10015 12.749C3.03048 13.2289 2.92405 13.6817 2.78085 14.1074C2.63764 14.5331 2.43832 14.8776 2.18288 15.1408C1.85003 15.4891 1.51525 15.8375 1.17852 16.1858C0.841802 16.5341 0.561201 16.8902 0.336721 17.254C0.11224 17.6178 0 17.9933 0 18.3803ZM2.25254 18.032V17.8926C2.32221 17.7843 2.43832 17.6391 2.60088 17.4572C2.76343 17.2753 2.94728 17.076 3.15241 16.8593C3.35754 16.6425 3.56073 16.4218 3.76198 16.1974C3.97098 15.9652 4.15289 15.6962 4.30771 15.3904C4.46252 15.0847 4.59411 14.7383 4.70248 14.3513C4.81085 13.9642 4.896 13.5346 4.95792 13.0624C5.01985 12.5902 5.06629 12.0716 5.09726 11.5066C5.12822 9.81908 5.30238 8.47995 5.61975 7.48913C5.93712 6.49832 6.36092 5.76102 6.89116 5.27723C7.4214 4.79343 8.01937 4.45864 8.68507 4.27287C8.83214 4.24191 8.94438 4.18579 9.02179 4.10451C9.0992 4.02323 9.14178 3.90906 9.14951 3.76198C9.17274 3.1582 9.34497 2.66474 9.6662 2.28158C9.98745 1.89841 10.4151 1.70683 10.9492 1.70683C11.4911 1.70683 11.9226 1.89841 12.2439 2.28158C12.5651 2.66474 12.7373 3.1582 12.7605 3.76198C12.7605 3.90906 12.8012 4.02323 12.8825 4.10451C12.9638 4.18579 13.0741 4.24191 13.2134 4.27287C13.8791 4.45864 14.477 4.79343 15.0073 5.27723C15.5375 5.76102 15.9633 6.49832 16.2845 7.48913C16.6058 8.47995 16.7819 9.81908 16.8128 11.5066C16.836 12.0716 16.8805 12.5902 16.9463 13.0624C17.0121 13.5346 17.0973 13.9642 17.2018 14.3513C17.3063 14.7383 17.4359 15.0847 17.5907 15.3904C17.7455 15.6962 17.9274 15.9652 18.1365 16.1974C18.3455 16.4218 18.5526 16.6425 18.7577 16.8593C18.9628 17.076 19.1448 17.2753 19.3034 17.4572C19.462 17.6391 19.5762 17.7843 19.6459 17.8926V18.032H2.25254ZM8.46446 19.7852H13.4456C13.3992 20.5748 13.1476 21.1999 12.6909 21.6605C12.2342 22.121 11.6537 22.3513 10.9492 22.3513C10.2526 22.3513 9.67395 22.121 9.21337 21.6605C8.7528 21.1999 8.50317 20.5748 8.46446 19.7852Z" fill="white"/>
</g>
</g>
<defs>
<clipPath id="clip0_1_128">
<rect width="21.91" height="24" fill="white"/>
</clipPath>
</defs>
</svg>
