<svg width="25" height="24" viewBox="0 0 25 24" fill="none" xmlns="http://www.w3.org/2000/svg">
<g id="bi:bar-chart-fill">
<path id="Vector" d="M1.83331 16.5C1.83331 16.1022 1.99135 15.7206 2.27265 15.4393C2.55396 15.158 2.93549 15 3.33331 15H6.33331C6.73114 15 7.11267 15.158 7.39397 15.4393C7.67528 15.7206 7.83331 16.1022 7.83331 16.5V21C7.83331 21.3978 7.67528 21.7794 7.39397 22.0607C7.11267 22.342 6.73114 22.5 6.33331 22.5H3.33331C2.93549 22.5 2.55396 22.342 2.27265 22.0607C1.99135 21.7794 1.83331 21.3978 1.83331 21V16.5ZM9.33331 10.5C9.33331 10.1022 9.49135 9.72064 9.77265 9.43934C10.054 9.15804 10.4355 9 10.8333 9H13.8333C14.2311 9 14.6127 9.15804 14.894 9.43934C15.1753 9.72064 15.3333 10.1022 15.3333 10.5V21C15.3333 21.3978 15.1753 21.7794 14.894 22.0607C14.6127 22.342 14.2311 22.5 13.8333 22.5H10.8333C10.4355 22.5 10.054 22.342 9.77265 22.0607C9.49135 21.7794 9.33331 21.3978 9.33331 21V10.5ZM16.8333 3C16.8333 2.60218 16.9913 2.22064 17.2727 1.93934C17.554 1.65804 17.9355 1.5 18.3333 1.5H21.3333C21.7311 1.5 22.1127 1.65804 22.394 1.93934C22.6753 2.22064 22.8333 2.60218 22.8333 3V21C22.8333 21.3978 22.6753 21.7794 22.394 22.0607C22.1127 22.342 21.7311 22.5 21.3333 22.5H18.3333C17.9355 22.5 17.554 22.342 17.2727 22.0607C16.9913 21.7794 16.8333 21.3978 16.8333 21V3Z" fill="white"/>
</g>
</svg>
