<svg width="16" height="16" viewBox="0 0 16 16" fill="none" xmlns="http://www.w3.org/2000/svg">
<path d="M5.64689 3.14592C5.60033 3.19236 5.56339 3.24754 5.53818 3.30828C5.51297 3.36903 5.5 3.43415 5.5 3.49992C5.5 3.56568 5.51297 3.63081 5.53818 3.69155C5.56339 3.7523 5.60033 3.80747 5.64689 3.85392L9.79389 7.99992L5.64689 12.1459C5.55301 12.2398 5.50026 12.3671 5.50026 12.4999C5.50026 12.6327 5.55301 12.76 5.64689 12.8539C5.74078 12.9478 5.86812 13.0005 6.00089 13.0005C6.13367 13.0005 6.26101 12.9478 6.35489 12.8539L10.8549 8.35392C10.9015 8.30747 10.9384 8.2523 10.9636 8.19155C10.9888 8.13081 11.0018 8.06568 11.0018 7.99992C11.0018 7.93415 10.9888 7.86903 10.9636 7.80828C10.9384 7.74754 10.9015 7.69236 10.8549 7.64592L6.35489 3.14592C6.30845 3.09935 6.25327 3.06241 6.19253 3.0372C6.13178 3.012 6.06666 2.99902 6.00089 2.99902C5.93513 2.99902 5.87001 3.012 5.80926 3.0372C5.74851 3.06241 5.69334 3.09935 5.64689 3.14592Z" fill="white"/>
</svg>
