<svg width="24" height="24" viewBox="0 0 24 24" fill="none" xmlns="http://www.w3.org/2000/svg">
<path d="M12 8C16.9706 8 21 6.65685 21 5C21 3.34315 16.9706 2 12 2C7.02944 2 3 3.34315 3 5C3 6.65685 7.02944 8 12 8Z" stroke="white" stroke-width="2" stroke-linecap="round" stroke-linejoin="round"/>
<path d="M3 12C2.99856 12.5592 3.46595 13.1073 4.34943 13.5826C5.23292 14.0579 6.49733 14.4415 8 14.69M21 9.3V5" stroke="white" stroke-width="2" stroke-linecap="round" stroke-linejoin="round"/>
<path d="M3 5V19C2.99937 19.6487 3.62952 20.28 4.796 20.7992C5.96248 21.3184 7.60242 21.6976 9.47 21.88M12 12V16H16" stroke="white" stroke-width="2" stroke-linecap="round" stroke-linejoin="round"/>
<path d="M13 20C13.6296 20.8395 14.5075 21.4597 15.5092 21.7726C16.5108 22.0855 17.5856 22.0753 18.5811 21.7434C19.5767 21.4116 20.4426 20.7749 21.0562 19.9236C21.6698 19.0722 22 18.0494 22 17C22 15.8065 21.5259 14.6619 20.682 13.818C19.8381 12.9741 18.6935 12.5 17.5 12.5C16.17 12.5 14.96 13.04 14.09 13.91L12 16" stroke="white" stroke-width="2" stroke-linecap="round" stroke-linejoin="round"/>
</svg>
