<svg width="20" height="20" viewBox="0 0 20 20" fill="none" xmlns="http://www.w3.org/2000/svg">
<path d="M13.8914 1.04734C14.5624 0.376207 15.4725 -0.000882777 16.4215 -0.000976545C17.3705 -0.00107031 18.2807 0.375839 18.9519 1.04684C19.623 1.71783 20.0001 2.62796 20.0002 3.57698C20.0003 4.52601 19.6234 5.43621 18.9524 6.10734L18.0604 7.00034L13.0004 1.93934L13.8914 1.04734ZM11.9404 3.00034L1.94036 12.9993C1.53415 13.4056 1.24856 13.9165 1.11536 14.4753L0.0203556 19.0773C-0.00929281 19.202 -0.00651306 19.3322 0.0284298 19.4554C0.0633727 19.5787 0.129314 19.691 0.219964 19.7815C0.310614 19.8721 0.42295 19.9379 0.546259 19.9727C0.669568 20.0075 0.799739 20.0101 0.924356 19.9803L5.52536 18.8843C6.08454 18.7513 6.59584 18.4657 7.00236 18.0593L17.0004 8.06034L11.9404 3.00034Z" fill="white"/>
</svg>
