<svg width="25" height="24" viewBox="0 0 25 24" fill="none" xmlns="http://www.w3.org/2000/svg">
<g id="fa-solid:wallet" clip-path="url(#clip0_1_220)">
<path id="Vector" fill-rule="evenodd" clip-rule="evenodd" d="M21.6766 10.171L21.6796 13.794C21.6536 14.139 21.6206 14.484 21.5806 14.828C21.5448 15.1114 21.4147 15.3745 21.2112 15.575C21.0076 15.7754 20.7425 15.9015 20.4586 15.933C18.6186 16.139 16.7146 16.139 14.8746 15.933C14.5907 15.9015 14.3256 15.7754 14.122 15.575C13.9185 15.3745 13.7884 15.1114 13.7526 14.828C13.5328 12.949 13.5328 11.0509 13.7526 9.17197C13.7884 8.88855 13.9185 8.62542 14.122 8.42497C14.3256 8.22451 14.5907 8.09841 14.8746 8.06697C16.7303 7.8613 18.603 7.8613 20.4586 8.06697C21.0456 8.13197 21.5136 8.59697 21.5806 9.17197C21.6196 9.50397 21.6516 9.83797 21.6766 10.172V10.171ZM17.6666 10.5C17.2688 10.5 16.8873 10.658 16.6059 10.9393C16.3246 11.2206 16.1666 11.6021 16.1666 12C16.1666 12.3978 16.3246 12.7793 16.6059 13.0606C16.8873 13.3419 17.2688 13.5 17.6666 13.5C18.0644 13.5 18.446 13.3419 18.7273 13.0606C19.0086 12.7793 19.1666 12.3978 19.1666 12C19.1666 11.6021 19.0086 11.2206 18.7273 10.9393C18.446 10.658 18.0644 10.5 17.6666 10.5Z" fill="white" fill-opacity="0.34"/>
<path id="Vector_2" d="M22.2854 6H4.41663C4.00225 6 3.66663 5.66437 3.66663 5.25C3.66663 4.83562 4.00225 4.5 4.41663 4.5H22.4166C22.831 4.5 23.1666 4.16438 23.1666 3.75C23.1666 2.50734 22.1593 1.5 20.9166 1.5H3.66663C2.00959 1.5 0.666626 2.84297 0.666626 4.5V19.5C0.666626 21.157 2.00959 22.5 3.66663 22.5H22.2854C23.5988 22.5 24.6666 21.4908 24.6666 20.25V8.25C24.6666 7.00922 23.5988 6 22.2854 6ZM20.1666 15.75C19.3383 15.75 18.6666 15.0783 18.6666 14.25C18.6666 13.4217 19.3383 12.75 20.1666 12.75C20.9949 12.75 21.6666 13.4217 21.6666 14.25C21.6666 15.0783 20.9949 15.75 20.1666 15.75Z" fill="white"/>
<path id="Vector_3" d="M21.0706 6.04001C21.2256 6.30902 20.9336 6.61002 20.6246 6.57602C18.6586 6.35807 16.6746 6.35807 14.7086 6.57602C14.0876 6.64497 13.5081 6.92171 13.0641 7.36134C12.6201 7.80098 12.3377 8.37772 12.2626 8.99802C12.0294 10.9926 12.0294 13.0075 12.2626 15.002C12.3377 15.6223 12.6201 16.1991 13.0641 16.6387C13.5081 17.0783 14.0876 17.3551 14.7086 17.424C16.6746 17.642 18.6586 17.642 20.6246 17.424C20.9356 17.389 21.2306 17.693 21.0736 17.964C20.6809 18.6412 20.1339 19.216 19.477 19.6417C18.8202 20.0675 18.0721 20.3321 17.2936 20.414L16.6416 20.482C13.3307 20.8301 9.99132 20.8069 6.6856 20.413L6.2536 20.362C5.38708 20.2589 4.5795 19.8704 3.95813 19.2577C3.33676 18.645 2.93691 17.843 2.8216 16.978C2.38076 13.674 2.38076 10.326 2.8216 7.02201C2.93691 6.15704 3.33676 5.35501 3.95813 4.74233C4.5795 4.12965 5.38708 3.74113 6.2536 3.63802L6.6856 3.58702C9.99131 3.19293 13.3307 3.16978 16.6416 3.51802L17.2936 3.58702C18.0721 3.66886 18.8201 3.93378 19.4766 4.36012C20.133 4.78646 20.6792 5.36211 21.0706 6.04001Z" fill="white" fill-opacity="0.34"/>
</g>
<defs>
<clipPath id="clip0_1_220">
<rect width="24" height="24" fill="white" transform="translate(0.666626)"/>
</clipPath>
</defs>
</svg>
