<svg width="32" height="32" viewBox="0 0 32 32" fill="none" xmlns="http://www.w3.org/2000/svg">
<g id="fluent-emoji-flat:ticket">
<g id="Group">
<path id="Vector" d="M27.81 9H22.7C22.45 9 22.24 9.174 22.17 9.42C21.98 10.085 21.37 10.577 20.66 10.577C19.95 10.577 19.34 10.096 19.15 9.42C19.1198 9.30163 19.0516 9.19644 18.9559 9.12057C18.8601 9.0447 18.7421 9.00234 18.62 9H4.19C2.98 9 2 10.003 2 11.242V21.758C2 22.997 2.98 24 4.19 24H18.62C18.87 24 19.08 23.826 19.15 23.58C19.34 22.915 19.95 22.423 20.66 22.423C21.37 22.423 21.98 22.904 22.17 23.58C22.24 23.826 22.45 24 22.7 24H27.81C29.02 24 30 22.997 30 21.758V11.242C30 10.003 29.02 9 27.81 9ZM20.66 20.642C19.79 20.642 19 19.899 19 19.008C19 18.118 19.79 17.406 20.66 17.406C21.53 17.406 22.256 18.117 22.256 19.008C22.256 19.898 21.53 20.642 20.66 20.642ZM20.66 15.604C19.79 15.604 19.012 14.877 19.012 13.986C19.012 13.096 19.79 12.369 20.66 12.369C21.53 12.369 22.281 13.096 22.281 13.986C22.281 14.877 21.53 15.604 20.66 15.604Z" fill="#F9C23C"/>
<path id="Vector_2" d="M10.116 14H5.884C5.395 14 5 13.569 5 13.035C5 12.501 5.395 12.07 5.884 12.07H10.116C10.605 12.07 11 12.501 11 13.035C11 13.58 10.605 14 10.116 14ZM5.584 19H15.426C15.739 19 16.01 18.777 16 18.5C16 18.223 15.74 18 15.416 18H5.584C5.261 18 5 18.223 5 18.5C5 18.777 5.26 19 5.584 19ZM5.584 21H15.426C15.739 21 16.01 20.768 16 20.5C16 20.223 15.74 20 15.416 20H5.584C5.261 20 5 20.223 5 20.5C5 20.777 5.26 21 5.584 21ZM24.739 17H27.261C27.671 17 28 17.33 28 17.739V20.261C28 20.671 27.67 21 27.261 21H24.74C24.6429 21.0003 24.5467 20.9813 24.4569 20.9443C24.3671 20.9072 24.2855 20.8528 24.2169 20.7841C24.1482 20.7155 24.0938 20.6339 24.0567 20.5441C24.0197 20.4543 24.0007 20.3581 24.001 20.261V17.74C24.001 17.33 24.331 17.001 24.74 17.001L24.739 17Z" fill="#D3883E"/>
</g>
</g>
</svg>
