<svg width="24" height="24" viewBox="0 0 24 24" fill="none" xmlns="http://www.w3.org/2000/svg">
<g id="fluent:home-48-filled">
<path id="Vector" d="M13.197 2.92748C12.8594 2.65093 12.4364 2.49982 12 2.49982C11.5636 2.49982 11.1406 2.65093 10.803 2.92748L4.2155 8.29848C3.99135 8.48225 3.81087 8.71356 3.68713 8.97567C3.56338 9.23778 3.49946 9.52413 3.5 9.81398V19.5565C3.5 20.63 4.3565 21.5 5.4125 21.5H7.5875C8.644 21.5 9.5 20.63 9.5 19.5565V15.25C9.5 14.9185 9.6317 14.6005 9.86612 14.3661C10.1005 14.1317 10.4185 14 10.75 14H13.25C13.5815 14 13.8995 14.1317 14.1339 14.3661C14.3683 14.6005 14.5 14.9185 14.5 15.25V19.5565C14.5 20.63 15.356 21.5 16.4125 21.5H18.5875C19.644 21.5 20.5 20.63 20.5 19.5565V9.81398C20.5005 9.52413 20.4366 9.23778 20.3129 8.97567C20.1891 8.71356 20.0087 8.48225 19.7845 8.29848L13.197 2.92748Z" fill="white"/>
</g>
</svg>
