<svg width="96" height="96" viewBox="0 0 96 96" fill="none" xmlns="http://www.w3.org/2000/svg">
<path d="M48 84C43.2724 84 38.5911 83.0688 34.2234 81.2597C29.8557 79.4505 25.8871 76.7988 22.5442 73.4558C19.2012 70.1129 16.5495 66.1443 14.7403 61.7766C12.9312 57.4089 12 52.7276 12 48C12 43.2724 12.9312 38.5911 14.7403 34.2234C16.5495 29.8557 19.2012 25.8871 22.5442 22.5442C25.8871 19.2012 29.8557 16.5495 34.2234 14.7403C38.5911 12.9312 43.2724 12 48 12C57.5478 12 66.7045 15.7928 73.4558 22.5442C80.2072 29.2955 84 38.4522 84 48C84 57.5478 80.2072 66.7045 73.4558 73.4558C66.7045 80.2072 57.5478 84 48 84ZM37.5 46.5C38.6935 46.5 39.8381 46.0259 40.682 45.182C41.5259 44.3381 42 43.1935 42 42C42 40.8065 41.5259 39.6619 40.682 38.818C39.8381 37.9741 38.6935 37.5 37.5 37.5C36.3065 37.5 35.1619 37.9741 34.318 38.818C33.4741 39.6619 33 40.8065 33 42C33 43.1935 33.4741 44.3381 34.318 45.182C35.1619 46.0259 36.3065 46.5 37.5 46.5ZM36.816 58.002C36.5544 57.7043 36.2364 57.4614 35.8804 57.2873C35.5244 57.1132 35.1374 57.0113 34.7418 56.9876C34.3462 56.9639 33.9498 57.0189 33.5756 57.1492C33.2013 57.2796 32.8566 57.4828 32.5614 57.7472C32.2661 58.0115 32.0261 58.3318 31.8553 58.6894C31.6845 59.047 31.5863 59.4349 31.5663 59.8307C31.5463 60.2265 31.6048 60.6223 31.7387 60.9954C31.8725 61.3684 32.0789 61.7112 32.346 62.004C34.3146 64.2078 36.727 65.9704 39.4248 67.1761C42.1227 68.3818 45.045 69.0034 48 69C50.955 69.0034 53.8773 68.3818 56.5752 67.1761C59.273 65.9704 61.6854 64.2078 63.654 62.004C63.9211 61.7112 64.1275 61.3684 64.2613 60.9954C64.3952 60.6223 64.4538 60.2265 64.4337 59.8307C64.4137 59.4349 64.3155 59.047 64.1447 58.6894C63.9739 58.3318 63.7339 58.0115 63.4386 57.7472C63.1434 57.4828 62.7987 57.2796 62.4244 57.1492C62.0502 57.0189 61.6538 56.9639 61.2582 56.9876C60.8626 57.0113 60.4756 57.1132 60.1196 57.2873C59.7636 57.4614 59.4456 57.7043 59.184 58.002C57.7781 59.5772 56.0547 60.837 54.1271 61.6984C52.1995 62.5598 50.1113 63.0034 48 63C43.56 63 39.57 61.074 36.816 58.002ZM58.5 46.5C59.6935 46.5 60.8381 46.0259 61.682 45.182C62.5259 44.3381 63 43.1935 63 42C63 40.8065 62.5259 39.6619 61.682 38.818C60.8381 37.9741 59.6935 37.5 58.5 37.5C57.3065 37.5 56.1619 37.9741 55.318 38.818C54.4741 39.6619 54 40.8065 54 42C54 43.1935 54.4741 44.3381 55.318 45.182C56.1619 46.0259 57.3065 46.5 58.5 46.5Z" fill="white"/>
</svg>
