<svg width="24" height="24" viewBox="0 0 24 24" fill="none" xmlns="http://www.w3.org/2000/svg">
<g id="fluent:chevron-down-24-filled">
<path id="Vector" d="M4.293 8.293C4.48053 8.10553 4.73484 8.00021 5 8.00021C5.26516 8.00021 5.51947 8.10553 5.707 8.293L12 14.586L18.293 8.293C18.3852 8.19749 18.4956 8.12131 18.6176 8.0689C18.7396 8.01649 18.8708 7.9889 19.0036 7.98775C19.1364 7.9866 19.2681 8.0119 19.391 8.06218C19.5138 8.11246 19.6255 8.18671 19.7194 8.28061C19.8133 8.3745 19.8875 8.48615 19.9378 8.60905C19.9881 8.73194 20.0134 8.86362 20.0123 8.9964C20.0111 9.12918 19.9835 9.2604 19.9311 9.38241C19.8787 9.50441 19.8025 9.61475 19.707 9.707L12.707 16.707C12.5195 16.8945 12.2652 16.9998 12 16.9998C11.7348 16.9998 11.4805 16.8945 11.293 16.707L4.293 9.707C4.10553 9.51947 4.00021 9.26517 4.00021 9C4.00021 8.73484 4.10553 8.48053 4.293 8.293Z" fill="white"/>
</g>
</svg>
