<svg width="24" height="24" viewBox="0 0 24 24" fill="none" xmlns="http://www.w3.org/2000/svg">
<path d="M8.90484 16.5H15.0968C14.4768 19.773 13.2358 22 12.0008 22C10.8038 22 9.60084 19.906 8.96284 16.796L8.90484 16.502V16.5ZM3.06684 16.501H7.37284C7.73684 18.583 8.35584 20.355 9.16484 21.594C6.62237 20.8394 4.48229 19.1085 3.21284 16.78L3.06684 16.501ZM16.6298 16.501H20.9348C20.3191 17.7204 19.4606 18.8012 18.4122 19.677C17.3637 20.5528 16.1474 21.2051 14.8378 21.594C15.5928 20.436 16.1818 18.816 16.5528 16.913L16.6298 16.501ZM16.9318 10.001H21.8018C22.1395 11.6626 22.0511 13.3827 21.5448 15.001H16.8408C16.994 13.5583 17.0374 12.1062 16.9708 10.657L16.9308 9.99995L16.9318 10.001ZM2.20084 9.99995H7.07084C6.96622 11.4719 6.97726 12.9498 7.10384 14.42L7.16084 15H2.45684C1.95029 13.3818 1.86154 11.6617 2.19884 9.99995H2.20084ZM8.57784 9.99995H15.4268C15.5411 11.4733 15.5287 12.9537 15.3898 14.425L15.3278 15H8.67484C8.50005 13.5026 8.45589 11.9929 8.54284 10.488L8.57784 9.99995H15.4268H8.57584H8.57784ZM14.9458 2.57595L14.8378 2.40595C16.3241 2.84734 17.6878 3.62738 18.8217 4.68477C19.9556 5.74216 20.8289 7.04809 21.3728 8.49995H16.7828C16.4668 6.08395 15.8258 4.00795 14.9448 2.57695L14.9458 2.57595ZM9.04384 2.44295L9.16584 2.40595C8.28384 3.75695 7.62884 5.73595 7.28084 8.05995L7.21884 8.49995H2.63084C3.16732 7.06828 4.02407 5.77823 5.13557 4.72843C6.24706 3.67864 7.58389 2.89689 9.04384 2.44295ZM12.0008 2.00195C13.3198 2.00195 14.6468 4.54395 15.2148 8.18495L15.2618 8.49995H8.73984C9.28084 4.69095 10.6448 2.00195 12.0008 2.00195Z" fill="white"/>
</svg>
