<svg width="33" height="32" viewBox="0 0 33 32" fill="none" xmlns="http://www.w3.org/2000/svg">
<g id="fluent-emoji-flat:headphone">
<g id="Group">
<path id="Vector" d="M6.49001 29.145L4.55001 22.965C4.39001 22.435 4.62001 21.855 5.12001 21.575L7.64001 20.205L10.59 29.635L7.74001 29.955C7.18001 30.025 6.66001 29.685 6.49001 29.145ZM27.07 29.145L29.01 22.965C29.18 22.435 28.95 21.855 28.44 21.575L25.92 20.205L22.97 29.635L25.82 29.955C26.38 30.025 26.9 29.685 27.07 29.145Z" fill="#998EA4"/>
<path id="Vector_2" d="M27.22 16.11C27.12 16.41 27.25 16.74 27.52 16.89C28.56 17.44 28.96 18.71 28.44 19.78L27.88 20.91C27.75 21.18 27.48 21.33 27.2 21.33C27.06 21.33 26.91 21.28 26.77 21.19C26.45 20.98 26.36 20.54 26.53 20.2L27.08 19.1C27.24 18.78 27.1 18.41 26.79 18.24C25.88 17.74 25.45 16.65 25.77 15.65C26.06 14.74 26.21 13.78 26.21 12.81V12.79C26.21 11.68 25.91 10.59 25.35 9.64C24.4754 8.14978 23.2261 6.91436 21.7261 6.05651C20.2262 5.19866 18.5279 4.74824 16.8 4.75C13.15 4.75 9.97 6.71 8.24 9.64C7.68 10.59 7.38 11.68 7.38 12.79V12.81C7.38 13.78 7.53 14.74 7.82 15.65C8.15 16.66 7.72 17.74 6.8 18.24C6.49 18.41 6.35 18.78 6.51 19.1L7.06 20.2C7.23 20.54 7.14 20.97 6.82 21.19C6.69 21.29 6.54 21.33 6.39 21.33C6.11 21.33 5.84 21.18 5.71 20.91L5.15 19.78C4.62 18.72 5.03 17.46 6.07 16.9C6.34 16.76 6.47 16.43 6.37 16.12C5.76208 14.2307 5.68589 12.2106 6.14979 10.2809C6.61369 8.35126 7.59977 6.58649 9 5.18C11.07 3.09 13.84 1.97 16.78 2H16.8C19.72 1.97 22.45 3.07 24.52 5.11C26.6 7.15 27.74 9.89 27.74 12.8C27.74 13.93 27.56 15.04 27.22 16.11Z" fill="#CDC4D6"/>
<path id="Vector_3" d="M10.08 18.375L8.15003 18.975C7.62003 19.145 7.33003 19.705 7.49003 20.235L10.42 29.605C10.59 30.135 11.15 30.425 11.68 30.265L13.61 29.665C14.14 29.495 14.43 28.935 14.27 28.405L11.34 19.035C11.18 18.505 10.61 18.215 10.08 18.375ZM23.48 18.375L25.41 18.975C25.94 19.145 26.23 19.705 26.07 20.235L23.14 29.605C22.97 30.135 22.41 30.425 21.88 30.265L19.95 29.665C19.42 29.495 19.13 28.935 19.29 28.405L22.22 19.035C22.39 18.505 22.95 18.215 23.48 18.375Z" fill="#CDC4D6"/>
</g>
</g>
</svg>
