<svg width="24" height="24" viewBox="0 0 24 24" fill="none" xmlns="http://www.w3.org/2000/svg">
<rect width="24" height="24" fill="#1E1E1E"/>
<g id="Home - New Account" clip-path="url(#clip0_178_10636)">
<rect width="430" height="932" transform="translate(-28 -303)" fill="#101010"/>
<g id="Frame 28">
<g id="Frame 19">
<g id="Frame 20">
<g id="Frame 23">
<g id="Frame 19_2">
<g id="fluent:money-hand-24-filled">
<path id="Vector" d="M6.25 2C5.65326 2 5.08097 2.23705 4.65901 2.65901C4.23705 3.08097 4 3.65326 4 4.25V19.75C4 20.3467 4.23705 20.919 4.65901 21.341C5.08097 21.7629 5.65326 22 6.25 22H13.75C14.3431 22 14.9123 21.7659 15.3336 21.3484C15.755 20.931 15.9945 20.3641 16 19.771V18.251C16 18.0521 15.921 17.8613 15.7803 17.7207C15.6397 17.58 15.4489 17.501 15.25 17.501C14.797 17.501 14.511 17.378 14.314 17.219C14.106 17.052 13.934 16.794 13.803 16.43C13.53 15.675 13.501 14.68 13.501 13.75C13.501 13.5599 13.4288 13.3769 13.299 13.238L13.134 13.061C13.0802 13.0006 13.0235 12.9428 12.964 12.888C12.89 12.818 12.664 12.603 11.781 11.72C11.312 11.251 11.053 10.855 10.968 10.552C10.9336 10.4471 10.9281 10.3348 10.952 10.227C10.9896 10.1027 11.0605 9.99098 11.157 9.904C11.2437 9.80792 11.3551 9.73738 11.479 9.7C11.5865 9.67609 11.6984 9.68162 11.803 9.716C12.105 9.801 12.501 10.062 12.97 10.531C13.51 11.071 14.023 11.577 14.482 12.031C15.242 12.783 15.855 13.391 16.202 13.761C16.338 13.9053 16.5255 13.9898 16.7236 13.9962C16.9217 14.0026 17.1143 13.9303 17.2593 13.7951C17.4043 13.6599 17.4899 13.4728 17.4973 13.2748C17.5047 13.0767 17.4334 12.8837 17.299 12.738C16.8733 12.2928 16.4403 11.8548 16 11.424V8.06L18.841 10.902C19.263 11.324 19.501 11.896 19.501 12.492V21.25C19.501 21.4489 19.58 21.6397 19.7207 21.7803C19.8613 21.921 20.0521 22 20.251 22C20.4499 22 20.6407 21.921 20.7813 21.7803C20.922 21.6397 21.001 21.4489 21.001 21.25V12.493C21.001 12.0004 20.9039 11.5127 20.7153 11.0577C20.5267 10.6026 20.2504 10.1892 19.902 9.841L16 5.939V4.249C15.9997 3.65244 15.7626 3.0804 15.3406 2.65866C14.9187 2.23692 14.3466 2 13.75 2H6.25ZM13.374 18.388C13.7028 18.6511 14.0883 18.8339 14.5 18.922V19H13.75C13.5511 19 13.3603 19.079 13.2197 19.2197C13.079 19.3603 13 19.5511 13 19.75V20.5H11.5V19.75C11.5 19.3261 11.6198 18.9108 11.8456 18.552C12.0714 18.1932 12.3939 17.9055 12.776 17.722C12.936 17.966 13.132 18.194 13.374 18.388ZM12.002 14.046C12.004 14.299 12.009 14.572 12.024 14.856C11.5584 15.1858 11.0191 15.3968 10.4533 15.4705C9.88749 15.5443 9.31222 15.4786 8.7776 15.2791C8.24298 15.0797 7.76523 14.7525 7.38597 14.3262C7.0067 13.8999 6.73743 13.3873 6.60159 12.8331C6.46576 12.2789 6.46748 11.6998 6.60662 11.1465C6.74576 10.5931 7.01808 10.0821 7.39988 9.65803C7.78168 9.23397 8.26137 8.90968 8.79717 8.71342C9.33297 8.51717 9.90862 8.45488 10.474 8.532C10.341 8.621 10.214 8.725 10.096 8.844C9.804 9.136 9.596 9.474 9.499 9.854C9.402 10.234 9.425 10.608 9.524 10.958C9.713 11.631 10.189 12.249 10.721 12.781C11.1277 13.1927 11.5397 13.599 11.957 14L11.961 14.003L11.998 14.042L12.002 14.046ZM7 3.5H8.5V4.25C8.5 4.84674 8.26295 5.41903 7.84099 5.84099C7.41903 6.26295 6.84674 6.5 6.25 6.5H5.5V5H6.25C6.44891 5 6.63968 4.92098 6.78033 4.78033C6.92098 4.63968 7 4.44891 7 4.25V3.5ZM11.5 3.5H13V4.25C13 4.664 13.336 5 13.75 5H14.5V6.5H13.75C13.1533 6.5 12.581 6.26295 12.159 5.84099C11.7371 5.41903 11.5 4.84674 11.5 4.25V3.5ZM8.5 20.5H7V19.75C7 19.5511 6.92098 19.3603 6.78033 19.2197C6.63968 19.079 6.44891 19 6.25 19H5.5V17.5H6.25C6.84674 17.5 7.41903 17.7371 7.84099 18.159C8.26295 18.581 8.5 19.1533 8.5 19.75V20.5Z" fill="white"/>
</g>
</g>
</g>
</g>
</g>
</g>
</g>
<defs>
<clipPath id="clip0_178_10636">
<rect width="430" height="932" fill="white" transform="translate(-28 -303)"/>
</clipPath>
</defs>
</svg>
