<svg width="24" height="26" viewBox="0 0 24 26" fill="none" xmlns="http://www.w3.org/2000/svg">
<g id="plus" clip-path="url(#clip0_1_228)">
<g id="Group">
<path id="Vector" d="M0 12.9928C0 13.3515 0.128485 13.657 0.385454 13.9091C0.642423 14.1612 0.945454 14.2873 1.29454 14.2873H10.7054V23.6981C10.7054 24.0473 10.8315 24.3503 11.0836 24.6073C11.3357 24.8643 11.6412 24.9928 12 24.9928C12.3588 24.9928 12.6667 24.8643 12.9236 24.6073C13.1806 24.3503 13.3091 24.0473 13.3091 23.6981V14.2873H22.7054C23.0545 14.2873 23.3575 14.1612 23.6145 13.9091C23.8715 13.657 24 13.3515 24 12.9928C24 12.634 23.8715 12.3261 23.6145 12.0691C23.3575 11.8121 23.0545 11.6837 22.7054 11.6837H13.3091V2.28731C13.3091 1.93822 13.1806 1.63519 12.9236 1.37822C12.6667 1.12125 12.3588 0.992767 12 0.992767C11.6412 0.992767 11.3357 1.12125 11.0836 1.37822C10.8315 1.63519 10.7054 1.93822 10.7054 2.28731V11.6837H1.29454C0.945454 11.6837 0.642423 11.8121 0.385454 12.0691C0.128485 12.3261 0 12.634 0 12.9928Z" fill="black"/>
</g>
</g>
<defs>
<clipPath id="clip0_1_228">
<rect width="24" height="24.0144" fill="white" transform="translate(0 0.992767)"/>
</clipPath>
</defs>
</svg>
