<svg width="32" height="32" viewBox="0 0 32 32" fill="none" xmlns="http://www.w3.org/2000/svg">
<g id="fluent-emoji-flat:shallow-pan-of-food">
<g id="Group">
<path id="Vector" d="M12.053 6.72001L9.98003 4.64801C9.40291 4.07167 8.62064 3.74796 7.80503 3.74796C6.98941 3.74796 6.20714 4.07167 5.63003 4.64801L4.00003 6.27801C3.42369 6.85512 3.09998 7.63739 3.09998 8.45301C3.09998 9.26862 3.42369 10.0509 4.00003 10.628L6.37303 13C5.82576 14.7555 5.76913 16.6273 6.20926 18.4127C6.6494 20.198 7.56952 21.829 8.87003 23.129C10.17 24.4299 11.8011 25.3503 13.5867 25.7906C15.3723 26.2309 17.2443 26.1743 19 25.627L21.372 28C21.9491 28.5763 22.7314 28.9001 23.547 28.9001C24.3626 28.9001 25.1449 28.5763 25.722 28L27.352 26.37C27.9284 25.7929 28.2521 25.0106 28.2521 24.195C28.2521 23.3794 27.9284 22.5971 27.352 22.02L25.279 19.947C26.0653 18.0967 26.2807 16.0536 25.8974 14.0801C25.5141 12.1065 24.5497 10.2925 23.128 8.87101C21.7064 7.44948 19.8924 6.48527 17.9188 6.10218C15.9453 5.71908 13.9022 5.93458 12.052 6.72101L12.053 6.72001ZM8.49903 6.12801L10.155 7.78401C8.98217 8.62048 8.00076 9.697 7.27603 10.942L5.48103 9.14701C5.29728 8.96258 5.19411 8.71285 5.19411 8.45251C5.19411 8.19217 5.29728 7.94244 5.48103 7.75801L7.11103 6.12801C7.29542 5.94457 7.54493 5.84159 7.80503 5.84159C8.06512 5.84159 8.31464 5.94457 8.49903 6.12801ZM24.216 21.845L25.872 23.501C26.0555 23.6854 26.1584 23.9349 26.1584 24.195C26.1584 24.4551 26.0555 24.7046 25.872 24.889L24.242 26.519C24.0576 26.7028 23.8079 26.8059 23.5475 26.8059C23.2872 26.8059 23.0375 26.7028 22.853 26.519L21.058 24.724C22.3031 23.9994 23.3796 23.0179 24.216 21.845Z" fill="#533566"/>
<path id="Vector_2" d="M24 24C19.582 28.418 12.418 28.418 8.00002 24C3.58202 19.582 3.58202 12.418 8.00002 7.99999C12.418 3.58199 19.582 3.58199 24 7.99999C28.418 12.418 28.418 19.582 24 24ZM22.058 22.058C22.8653 21.265 23.5074 20.3199 23.9474 19.2773C24.3874 18.2348 24.6165 17.1154 24.6215 15.9838C24.6265 14.8522 24.4073 13.7309 23.9765 12.6845C23.5457 11.6381 22.912 10.6873 22.1118 9.88722C21.3116 9.0871 20.3608 8.45341 19.3144 8.02274C18.268 7.59207 17.1466 7.37296 16.015 7.37805C14.8834 7.38314 13.764 7.61234 12.7215 8.05241C11.679 8.49248 10.734 9.1347 9.94102 9.94199C8.35795 11.5537 7.47547 13.7254 7.48563 15.9845C7.4958 18.2436 8.39779 20.4073 9.99531 22.0047C11.5928 23.6021 13.7566 24.5039 16.0157 24.5139C18.2748 24.5239 20.4465 23.6412 22.058 22.058Z" fill="#635994"/>
<path id="Vector_3" d="M16 22.893C16.764 22.893 17.583 23.228 18.285 23.01C19.002 22.776 19.455 22.012 20.062 21.575C20.67 21.139 21.528 20.935 21.972 20.335C22.409 19.743 22.332 18.854 22.565 18.137C22.791 17.443 23.376 16.78 23.376 16C23.376 15.236 22.791 14.558 22.566 13.864C22.331 13.146 22.401 12.265 21.973 11.664C21.536 11.057 20.671 10.862 20.063 10.425C19.47 9.988 19.002 9.225 18.285 8.99C17.591 8.764 16.78 9.107 16 9.107C15.236 9.107 14.417 8.772 13.715 8.99C12.998 9.224 12.545 9.988 11.938 10.425C11.329 10.862 10.472 11.065 10.028 11.665C9.59102 12.257 9.66802 13.146 9.43502 13.864C9.20902 14.558 8.62402 15.22 8.62402 16C8.62402 16.764 9.20902 17.443 9.43402 18.137C9.66902 18.854 9.59802 19.735 10.027 20.335C10.464 20.943 11.329 21.138 11.937 21.575C12.53 22.012 12.998 22.775 13.715 23.01C14.425 23.236 15.235 22.893 16 22.893Z" fill="#FCD53F"/>
<path id="Vector_4" d="M15.26 12.28C15.3079 12.4395 15.2904 12.6115 15.2114 12.7582C15.1325 12.9049 14.9985 13.0141 14.839 13.062L12.547 13.748C12.3873 13.7957 12.2152 13.7781 12.0686 13.699C11.9219 13.6198 11.8127 13.4857 11.765 13.326C11.7172 13.1663 11.7349 12.9943 11.814 12.8476C11.8932 12.701 12.0273 12.5917 12.187 12.544L14.479 11.858C14.811 11.758 15.16 11.948 15.26 12.28ZM19.367 14.452C19.4484 14.4651 19.5264 14.4942 19.5966 14.5375C19.6668 14.5808 19.7278 14.6374 19.7761 14.7043C19.8244 14.7712 19.859 14.8469 19.8781 14.9271C19.8971 15.0074 19.9001 15.0906 19.887 15.172L19.505 17.535C19.4785 17.6994 19.3877 17.8466 19.2527 17.9441C19.1177 18.0416 18.9494 18.0815 18.785 18.055C18.6205 18.0285 18.4734 17.9377 18.3759 17.8027C18.2783 17.6677 18.2385 17.4994 18.265 17.335L18.647 14.972C18.6601 14.8906 18.6892 14.8125 18.7324 14.7424C18.7757 14.6722 18.8324 14.6112 18.8993 14.5629C18.9661 14.5146 19.0419 14.48 19.1221 14.4609C19.2024 14.4419 19.2856 14.4389 19.367 14.452ZM15.027 20.47C15.0856 20.5281 15.1551 20.5741 15.2315 20.6054C15.3079 20.6366 15.3898 20.6525 15.4723 20.6521C15.5549 20.6518 15.6365 20.6351 15.7127 20.6032C15.7888 20.5713 15.8579 20.5246 15.916 20.466C15.9741 20.4074 16.0201 20.3379 16.0513 20.2615C16.0826 20.185 16.0985 20.1032 16.0981 20.0207C16.0977 19.9381 16.0811 19.8565 16.0492 19.7803C16.0172 19.7042 15.9706 19.6351 15.912 19.577L14.212 17.893C14.0931 17.7789 13.9341 17.7162 13.7693 17.7182C13.6045 17.7203 13.4472 17.7871 13.3312 17.9041C13.2152 18.0212 13.1498 18.1791 13.1492 18.3439C13.1486 18.5087 13.2128 18.6671 13.328 18.785L15.027 20.47Z" fill="#44911B"/>
<path id="Vector_5" d="M17.0531 12.593C17.1772 12.717 17.3455 12.7866 17.5209 12.7865C17.6078 12.7865 17.6938 12.7693 17.774 12.736C17.8543 12.7027 17.9272 12.654 17.9886 12.5925C18.05 12.531 18.0987 12.4581 18.1319 12.3778C18.1651 12.2975 18.1821 12.2115 18.1821 12.1246C18.182 12.0378 18.1649 11.9518 18.1316 11.8715C18.0983 11.7913 18.0495 11.7184 17.9881 11.657C17.864 11.533 17.6957 11.4634 17.5202 11.4635C17.3448 11.4636 17.1766 11.5334 17.0526 11.6575C16.9286 11.7816 16.859 11.9499 16.8591 12.1254C16.8592 12.3008 16.929 12.469 17.0531 12.593ZM18.3231 20.632C18.384 20.6956 18.4571 20.7464 18.538 20.7814C18.6188 20.8164 18.7059 20.8349 18.794 20.8359C18.8821 20.8368 18.9695 20.8201 19.0511 20.7868C19.1327 20.7535 19.2068 20.7043 19.2691 20.642C19.3314 20.5797 19.3806 20.5056 19.4139 20.424C19.4472 20.3424 19.4639 20.255 19.4629 20.1669C19.462 20.0788 19.4435 19.9918 19.4085 19.9109C19.3735 19.83 19.3227 19.757 19.2591 19.696C19.1341 19.5762 18.9671 19.5101 18.794 19.5119C18.6208 19.5138 18.4553 19.5834 18.3329 19.7058C18.2104 19.8282 18.1408 19.9938 18.139 20.1669C18.1372 20.34 18.2033 20.507 18.3231 20.632ZM11.3601 17.801C11.2999 17.8676 11.2268 17.9213 11.1453 17.9588C11.0637 17.9963 10.9754 18.0168 10.8856 18.0191C10.7959 18.0214 10.7066 18.0054 10.6232 17.9721C10.5399 17.9388 10.4642 17.8889 10.4007 17.8254C10.3372 17.7619 10.2873 17.6862 10.254 17.6028C10.2207 17.5195 10.2047 17.4302 10.207 17.3405C10.2093 17.2507 10.2298 17.1624 10.2673 17.0808C10.3048 16.9993 10.3585 16.9262 10.4251 16.866C10.5506 16.7497 10.7163 16.6866 10.8874 16.6898C11.0585 16.6931 11.2217 16.7624 11.3427 16.8834C11.4638 17.0043 11.5333 17.1674 11.5367 17.3385C11.5402 17.5096 11.4772 17.6753 11.3611 17.801H11.3601Z" fill="#F8312F"/>
</g>
</g>
</svg>
