<svg width="14" height="14" viewBox="0 0 14 14" fill="none" xmlns="http://www.w3.org/2000/svg">
<path fill-rule="evenodd" clip-rule="evenodd" d="M6.218 0.225973C6.39417 0.118341 6.59066 0.0482334 6.79517 0.0200375C6.99968 -0.00815835 7.20781 0.0061649 7.40653 0.0621107C7.60525 0.118057 7.79028 0.21442 7.95005 0.34517C8.10981 0.47592 8.24086 0.638241 8.335 0.821973L8.337 0.825973L13.837 11.825C13.9521 12.0533 14.0068 12.3073 13.9961 12.5628C13.9854 12.8182 13.9096 13.0667 13.7759 13.2846C13.6421 13.5026 13.4549 13.6827 13.2319 13.8079C13.009 13.9331 12.7577 13.9992 12.502 14H1.498C1.24236 13.9993 0.991133 13.9333 0.768174 13.8082C0.545215 13.6831 0.357922 13.5031 0.224073 13.2853C0.0902249 13.0675 0.0142635 12.8191 0.00339987 12.5637C-0.00746376 12.3083 0.0471309 12.0544 0.162001 11.826V11.825L5.664 0.825973L5.666 0.821973C5.79195 0.576186 5.98232 0.369942 6.218 0.225973ZM7 4.12497C7.19891 4.12497 7.38968 4.20399 7.53033 4.34464C7.67098 4.48529 7.75 4.67606 7.75 4.87497V8.12497C7.75 8.32389 7.67098 8.51465 7.53033 8.6553C7.38968 8.79596 7.19891 8.87497 7 8.87497C6.80109 8.87497 6.61032 8.79596 6.46967 8.6553C6.32902 8.51465 6.25 8.32389 6.25 8.12497V4.87497C6.25 4.67606 6.32902 4.48529 6.46967 4.34464C6.61032 4.20399 6.80109 4.12497 7 4.12497ZM8 10.875C8 11.1402 7.89464 11.3945 7.70711 11.5821C7.51957 11.7696 7.26522 11.875 7 11.875C6.73478 11.875 6.48043 11.7696 6.29289 11.5821C6.10536 11.3945 6 11.1402 6 10.875C6 10.6098 6.10536 10.3554 6.29289 10.1679C6.48043 9.98033 6.73478 9.87497 7 9.87497C7.26522 9.87497 7.51957 9.98033 7.70711 10.1679C7.89464 10.3554 8 10.6098 8 10.875Z" fill="#F24E1E"/>
</svg>
